<?xml version="1.0" standalone="no"?>
<!DOCTYPE svg PUBLIC "-//W3C//DTD SVG 20010904//EN"
 "http://www.w3.org/TR/2001/REC-SVG-20010904/DTD/svg10.dtd">
<svg version="1.0" xmlns="http://www.w3.org/2000/svg"
 width="131.000000pt" height="62.000000pt" viewBox="0 0 131.000000 62.000000"
 preserveAspectRatio="xMidYMid meet">

<g transform="translate(0.000000,62.000000) scale(0.100000,-0.100000)"
fill="#000000" stroke="none">
<path d="M710 543 c0 -13 53 -63 67 -63 21 0 15 19 -13 45 -26 24 -54 33 -54
18z"/>
<path d="M590 526 c0 -16 22 -41 51 -56 11 -7 19 -7 19 -1 0 23 -14 43 -41 57
-25 13 -29 13 -29 0z"/>
<path d="M451 513 c17 -23 52 -52 62 -53 17 0 5 30 -19 49 -34 27 -63 29 -43
4z"/>
<path d="M400 457 c0 -18 59 -33 87 -23 25 10 2 27 -46 33 -33 5 -41 3 -41
-10z"/>
<path d="M980 455 c-36 -7 -87 -14 -115 -15 -34 -2 -41 -4 -21 -7 36 -6 182
13 204 27 20 11 17 11 -68 -5z"/>
<path d="M556 379 c-24 -19 -36 -49 -18 -49 14 0 52 31 62 51 15 26 -9 26 -44
-2z"/>
<path d="M698 379 c-26 -20 -39 -59 -19 -59 12 0 71 59 71 71 0 15 -23 10 -52
-12z"/>
<path d="M826 379 c-24 -19 -36 -59 -18 -59 12 0 62 54 62 68 0 18 -14 15 -44
-9z"/>
<path d="M995 270 c-3 -5 -1 -10 4 -10 6 0 11 5 11 10 0 6 -2 10 -4 10 -3 0
-8 -4 -11 -10z"/>
<path d="M540 208 c0 -29 1 -30 13 -13 17 22 37 12 30 -15 -6 -21 12 -50 29
-50 6 0 5 7 -2 15 -7 8 -10 27 -7 41 3 18 0 27 -12 31 -9 2 -24 9 -33 14 -15
8 -18 5 -18 -23z"/>
<path d="M483 205 c0 -13 3 -22 8 -19 5 3 9 14 9 25 0 10 -4 19 -9 19 -5 0 -8
-11 -8 -25z"/>
<path d="M780 196 c0 -39 9 -68 19 -62 10 6 0 96 -10 96 -5 0 -9 -15 -9 -34z"/>
<path d="M1084 222 c-6 -4 -16 -17 -23 -29 -14 -27 1 -63 25 -63 14 0 13 2 -1
16 -22 23 -15 56 15 71 14 7 18 13 10 13 -8 0 -20 -4 -26 -8z"/>
<path d="M328 194 c-14 -30 -2 -57 28 -62 19 -4 19 -4 0 10 -14 11 -17 23 -14
46 6 39 1 40 -14 6z"/>
<path d="M428 194 c-15 -32 -1 -58 33 -61 l24 -3 -24 10 c-19 9 -23 16 -19 45
5 42 2 44 -14 9z"/>
<path d="M836 183 c7 -42 19 -60 28 -45 3 6 2 13 -4 17 -5 3 -10 19 -10 36 0
16 -5 29 -10 29 -7 0 -8 -14 -4 -37z"/>
<path d="M897 214 c-9 -10 19 -78 34 -82 11 -4 12 -2 2 9 -7 7 -13 25 -13 40
0 27 -12 44 -23 33z"/>
<path d="M654 176 c-7 -31 1 -46 27 -46 19 0 19 0 -1 20 -11 11 -17 26 -14 35
4 8 3 15 0 15 -3 0 -8 -11 -12 -24z"/>
<path d="M977 187 c-10 -26 10 -57 36 -56 21 0 21 1 2 8 -11 5 -22 21 -25 37
-5 24 -7 26 -13 11z"/>
<path d="M717 163 c-12 -19 1 -33 26 -32 16 1 17 3 5 6 -9 2 -18 12 -20 21 -3
13 -6 14 -11 5z"/>
</g>
</svg>
